<svg width="19" height="18" viewBox="0 0 19 18" fill="none" xmlns="http://www.w3.org/2000/svg">
<path d="M17.4477 0H2.25166C1.84864 0 1.46212 0.158035 1.17714 0.43934C0.892157 0.720644 0.732056 1.10218 0.732056 1.5V16.5C0.732056 16.8978 0.892157 17.2794 1.17714 17.5607C1.46212 17.842 1.84864 18 2.25166 18H17.4477C17.8508 18 18.2373 17.842 18.5223 17.5607C18.8072 17.2794 18.9674 16.8978 18.9674 16.5V1.5C18.9674 1.10218 18.8072 0.720644 18.5223 0.43934C18.2373 0.158035 17.8508 0 17.4477 0ZM13.4265 8.78063C13.3559 8.85036 13.2721 8.90568 13.1799 8.94342C13.0876 8.98116 12.9888 9.00059 12.8889 9.00059C12.7891 9.00059 12.6902 8.98116 12.598 8.94342C12.5057 8.90568 12.4219 8.85036 12.3514 8.78063L10.6095 7.06031V12.75C10.6095 12.9489 10.5295 13.1397 10.387 13.2803C10.2445 13.421 10.0512 13.5 9.8497 13.5C9.64819 13.5 9.45493 13.421 9.31244 13.2803C9.16995 13.1397 9.0899 12.9489 9.0899 12.75V7.06031L7.34805 8.78063C7.20548 8.92136 7.01211 9.00042 6.81049 9.00042C6.60886 9.00042 6.4155 8.92136 6.27293 8.78063C6.13036 8.63989 6.05026 8.44902 6.05026 8.25C6.05026 8.05098 6.13036 7.86011 6.27293 7.71937L9.31214 4.71937C9.38271 4.64964 9.46651 4.59432 9.55874 4.55658C9.65098 4.51884 9.74985 4.49941 9.8497 4.49941C9.94955 4.49941 10.0484 4.51884 10.1407 4.55658C10.2329 4.59432 10.3167 4.64964 10.3873 4.71937L13.4265 7.71937C13.4971 7.78903 13.5532 7.87175 13.5914 7.96279C13.6296 8.05384 13.6493 8.15144 13.6493 8.25C13.6493 8.34856 13.6296 8.44616 13.5914 8.5372C13.5532 8.62825 13.4971 8.71097 13.4265 8.78063Z" fill="white" fill-opacity="0.47"/>
</svg>
