<svg width="25" height="22" viewBox="0 0 25 22" fill="none" xmlns="http://www.w3.org/2000/svg">
<path d="M12.5011 5.92404C11.4416 5.92404 10.4059 6.22173 9.525 6.77948C8.64409 7.33722 7.9575 8.12996 7.55206 9.05746C7.14662 9.98495 7.04054 11.0055 7.24723 11.9902C7.45392 12.9748 7.9641 13.8792 8.71326 14.5891C9.46241 15.299 10.4169 15.7824 11.456 15.9783C12.4951 16.1741 13.5722 16.0736 14.551 15.6894C15.5298 15.3052 16.3664 14.6546 16.955 13.8199C17.5436 12.9852 17.8578 12.0038 17.8578 10.9999C17.8563 9.65414 17.2915 8.36388 16.2872 7.41227C15.283 6.46066 13.9213 5.92544 12.5011 5.92404ZM12.5011 14.3838C11.7947 14.3838 11.1043 14.1854 10.517 13.8135C9.92974 13.4417 9.47202 12.9132 9.20172 12.2949C8.93143 11.6766 8.86071 10.9962 8.9985 10.3397C9.1363 9.68333 9.47642 9.08037 9.97586 8.60712C10.4753 8.13387 11.1116 7.81159 11.8044 7.68102C12.4971 7.55045 13.2151 7.61746 13.8677 7.87358C14.5202 8.1297 15.078 8.56343 15.4704 9.11991C15.8628 9.67639 16.0722 10.3306 16.0722 10.9999C16.0722 11.8974 15.696 12.7581 15.0263 13.3927C14.3565 14.0273 13.4482 14.3838 12.5011 14.3838ZM24.7703 8.80142C24.7454 8.68229 24.6938 8.56963 24.6188 8.4711C24.5439 8.37257 24.4475 8.29047 24.3361 8.23039L21.0071 6.43268L20.9938 2.87745C20.9933 2.75501 20.9649 2.63412 20.9104 2.52311C20.8558 2.4121 20.7765 2.31364 20.6779 2.23451C19.4703 1.2666 18.0797 0.524856 16.58 0.0487117C16.4619 0.0108328 16.3367 -0.00318514 16.2126 0.00756066C16.0884 0.0183065 15.968 0.0535778 15.8591 0.111103L12.5011 1.88977L9.13969 0.10793C9.03072 0.0500813 8.91015 0.0145437 8.78577 0.00361446C8.6614 -0.00731477 8.53599 0.00660764 8.41765 0.0444817C6.91903 0.524107 5.53001 1.26868 4.32419 2.23874C4.22572 2.31775 4.1465 2.41605 4.09198 2.52686C4.03746 2.63767 4.00893 2.75836 4.00836 2.88063L3.99162 6.43903L0.662623 8.23673C0.551249 8.29681 0.45483 8.37891 0.379922 8.47744C0.305013 8.57598 0.25337 8.68864 0.228502 8.80777C-0.0761675 10.2585 -0.0761675 11.7519 0.228502 13.2026C0.25337 13.3218 0.305013 13.4344 0.379922 13.533C0.45483 13.6315 0.551249 13.7136 0.662623 13.7737L3.99162 15.5714L4.00502 19.1266C4.00542 19.249 4.03387 19.3699 4.0884 19.4809C4.14293 19.5919 4.22223 19.6904 4.32084 19.7695C5.52842 20.7375 6.91904 21.4792 8.41876 21.9553C8.53686 21.9932 8.66203 22.0072 8.7862 21.9965C8.91037 21.9857 9.03078 21.9505 9.13969 21.893L12.5011 20.1101L15.8624 21.8919C15.9954 21.9621 16.1454 21.9986 16.2977 21.9976C16.3952 21.9976 16.492 21.9826 16.5845 21.9532C18.0829 21.4742 19.4719 20.7304 20.6779 19.7611C20.7764 19.6821 20.8556 19.5838 20.9101 19.473C20.9647 19.3622 20.9932 19.2415 20.9938 19.1192L21.0105 15.5608L24.3395 13.7631C24.4509 13.703 24.5473 13.6209 24.6222 13.5224C24.6971 13.4238 24.7487 13.3112 24.7736 13.1921C25.0766 11.7425 25.0754 10.2506 24.7703 8.80142ZM23.0963 12.4931L19.9079 14.2115C19.7682 14.2867 19.6525 14.3963 19.5731 14.5287C19.5084 14.6344 19.4403 14.7465 19.3711 14.8523C19.2825 14.9856 19.2353 15.1399 19.2349 15.2975L19.2182 18.7078C18.3612 19.3456 17.4064 19.8555 16.3869 20.22L13.1707 18.5217C13.0371 18.4517 12.8869 18.4153 12.7343 18.416H12.7131C12.5781 18.416 12.4419 18.416 12.3069 18.416C12.1472 18.4122 11.9893 18.4487 11.8493 18.5217L8.6308 20.2243C7.60912 19.8625 6.65173 19.3551 5.79172 18.7195L5.77944 15.3144C5.77889 15.1565 5.73173 15.002 5.64329 14.8682C5.5741 14.7624 5.50602 14.6567 5.44241 14.5446C5.36354 14.4101 5.24788 14.2984 5.10762 14.221L1.91588 12.4984C1.75071 11.5084 1.75071 10.4999 1.91588 9.50993L5.09869 7.78836C5.23838 7.71309 5.35405 7.60349 5.43349 7.47112C5.49821 7.36537 5.56629 7.25328 5.63548 7.14753C5.72405 7.01418 5.77123 6.8599 5.77163 6.70234L5.78837 3.29198C6.64537 2.65427 7.60014 2.14433 8.61964 1.7798L11.8315 3.4781C11.9712 3.55152 12.1293 3.58804 12.289 3.58385C12.4241 3.58385 12.5602 3.58385 12.6952 3.58385C12.855 3.58763 13.0129 3.55113 13.1528 3.4781L16.3713 1.77557C17.393 2.1373 18.3504 2.64474 19.2104 3.28035L19.2227 6.68542C19.2232 6.84329 19.2704 6.99787 19.3588 7.13167C19.428 7.23742 19.4961 7.34317 19.5597 7.45526C19.6386 7.58968 19.7542 7.70146 19.8945 7.77885L23.0862 9.50147C23.2536 10.4922 23.2555 11.5018 23.0918 12.4931H23.0963Z" fill="white"/>
</svg>
