<svg width="29" height="19" viewBox="0 0 29 19" fill="none" xmlns="http://www.w3.org/2000/svg">
<path d="M13.2646 13.0461C14.5004 12.1991 15.4387 10.9651 15.9406 9.52667C16.4426 8.08823 16.4815 6.52168 16.0518 5.05867C15.622 3.59567 14.7463 2.31389 13.5542 1.40288C12.3621 0.491873 10.9168 0 9.43215 0C7.9475 0 6.50225 0.491873 5.31013 1.40288C4.11802 2.31389 3.24233 3.59567 2.81255 5.05867C2.38278 6.52168 2.42174 8.08823 2.92367 9.52667C3.42561 10.9651 4.36386 12.1991 5.5997 13.0461C3.36419 13.8943 1.45502 15.464 0.157047 17.5208C0.0888304 17.6252 0.041447 17.7425 0.0176512 17.8659C-0.00614469 17.9893 -0.00587827 18.1163 0.0184349 18.2396C0.0427481 18.3629 0.0906231 18.48 0.159277 18.584C0.227931 18.6881 0.315994 18.7771 0.418348 18.8458C0.520702 18.9145 0.635305 18.9616 0.755495 18.9844C0.875685 19.0071 0.999065 19.005 1.11846 18.9782C1.23786 18.9514 1.3509 18.9005 1.451 18.8283C1.5511 18.7562 1.63627 18.6642 1.70155 18.5579C2.5388 17.2322 3.68447 16.1428 5.0345 15.3887C6.38454 14.6345 7.89618 14.2395 9.43215 14.2395C10.9681 14.2395 12.4798 14.6345 13.8298 15.3887C15.1798 16.1428 16.3255 17.2322 17.1628 18.5579C17.298 18.7648 17.5069 18.9086 17.7443 18.9583C17.9818 19.0079 18.2286 18.9593 18.4315 18.8231C18.6345 18.6868 18.7771 18.4738 18.8287 18.2301C18.8803 17.9864 18.8367 17.7316 18.7073 17.5208C17.4093 15.464 15.5001 13.8943 13.2646 13.0461ZM4.36064 7.12254C4.36064 6.08991 4.65808 5.08047 5.21534 4.22186C5.77261 3.36326 6.56467 2.69406 7.49137 2.29889C8.41807 1.90372 9.43778 1.80033 10.4216 2.00178C11.4053 2.20324 12.309 2.7005 13.0183 3.43068C13.7275 4.16086 14.2105 5.09117 14.4062 6.10396C14.6019 7.11675 14.5015 8.16653 14.1176 9.12056C13.7338 10.0746 13.0837 10.89 12.2497 11.4637C11.4157 12.0374 10.4352 12.3436 9.43215 12.3436C8.08757 12.342 6.7985 11.7915 5.84774 10.8127C4.89697 9.83386 4.36217 8.50677 4.36064 7.12254ZM28.5817 18.8344C28.3769 18.9719 28.1274 19.02 27.8881 18.9681C27.6489 18.9163 27.4394 18.7687 27.3058 18.5579C26.4695 17.2314 25.324 16.1415 23.9737 15.3877C22.6234 14.6339 21.1112 14.2401 19.5752 14.2422C19.3306 14.2422 19.0961 14.1422 18.9232 13.9642C18.7502 13.7861 18.6531 13.5447 18.6531 13.2929C18.6531 13.0411 18.7502 12.7997 18.9232 12.6217C19.0961 12.4436 19.3306 12.3436 19.5752 12.3436C20.322 12.3429 21.0595 12.1724 21.7349 11.8442C22.4104 11.516 23.007 11.0383 23.4823 10.4452C23.9577 9.85216 24.2998 9.15832 24.4845 8.4133C24.6691 7.66828 24.6917 6.89048 24.5505 6.13546C24.4093 5.38044 24.1078 4.66684 23.6677 4.04566C23.2275 3.42448 22.6596 2.91104 22.0043 2.54203C21.3491 2.17303 20.6228 1.95756 19.8773 1.91103C19.1318 1.8645 18.3855 1.98806 17.6918 2.27287C17.5787 2.32321 17.4569 2.3497 17.3337 2.35077C17.2105 2.35184 17.0883 2.32748 16.9744 2.27911C16.8605 2.23075 16.7571 2.15937 16.6704 2.06919C16.5838 1.97901 16.5155 1.87186 16.4698 1.75407C16.424 1.63629 16.4016 1.51025 16.404 1.38341C16.4063 1.25657 16.4334 1.13151 16.4835 1.0156C16.5336 0.899697 16.6057 0.795305 16.6957 0.708594C16.7856 0.621883 16.8915 0.554613 17.0072 0.510757C18.5948 -0.141105 20.3608 -0.164563 21.9643 0.444908C23.5677 1.05438 24.8952 2.2536 25.6905 3.81121C26.4858 5.36882 26.6926 7.17447 26.2711 8.87981C25.8495 10.5851 24.8294 12.0694 23.4076 13.0461C25.6431 13.8943 27.5523 15.464 28.8503 17.5208C28.9839 17.7317 29.0306 17.9885 28.9802 18.2348C28.9299 18.4812 28.7865 18.6968 28.5817 18.8344Z" fill="white"/>
</svg>
