<svg xmlns="http://www.w3.org/2000/svg" width="192" height="192" viewBox="0 0 192 192" role="img" aria-label="PNL Green icon">
  <defs>
    <linearGradient id="g" x1="0%" x2="100%" y1="0%" y2="100%">
      <stop stop-color="#0bd88d" offset="0" />
      <stop stop-color="#0ba8d8" offset="1" />
    </linearGradient>
  </defs>
  <rect width="192" height="192" rx="36" fill="#05070b" />
  <rect x="24" y="36" width="144" height="120" rx="24" fill="url(#g)" opacity="0.12" />
  <path fill="#0bd88d" d="M64 64h64a12 12 0 0 1 12 12v40a12 12 0 0 1-12 12H88l-16 20a4 4 0 0 1-7-2.4V76a12 12 0 0 1 12-12Zm0 8a4 4 0 0 0-4 4v61.4L72.3 116A4 4 0 0 1 75.5 114H128a4 4 0 0 0 4-4V76a4 4 0 0 0-4-4Z" />
</svg>
