<svg width="14" height="16" viewBox="0 0 14 16" fill="none" xmlns="http://www.w3.org/2000/svg">
<path d="M14 6.0247C14 6.18818 13.9385 6.34496 13.8291 6.46056C13.7197 6.57616 13.5714 6.6411 13.4167 6.6411C13.262 6.6411 13.1136 6.57616 13.0042 6.46056C12.8948 6.34496 12.8333 6.18818 12.8333 6.0247V2.58215L7.99677 7.69359C7.88731 7.80925 7.73886 7.87423 7.58406 7.87423C7.42927 7.87423 7.28081 7.80925 7.17135 7.69359C7.0619 7.57793 7.0004 7.42106 7.0004 7.25749C7.0004 7.09392 7.0619 6.93705 7.17135 6.82139L12.0079 1.70996H8.75C8.59529 1.70996 8.44692 1.64502 8.33752 1.52942C8.22812 1.41382 8.16667 1.25704 8.16667 1.09357C8.16667 0.930088 8.22812 0.773306 8.33752 0.65771C8.44692 0.542114 8.59529 0.477173 8.75 0.477173H13.4167C13.5714 0.477173 13.7197 0.542114 13.8291 0.65771C13.9385 0.773306 14 0.930088 14 1.09357V6.0247ZM11.0833 7.87388C10.9286 7.87388 10.7802 7.93882 10.6709 8.05442C10.5615 8.17001 10.5 8.3268 10.5 8.49027V14.0378H1.16667V4.17553H6.41667C6.57138 4.17553 6.71975 4.11059 6.82915 3.99499C6.93854 3.87939 7 3.72261 7 3.55913C7 3.39566 6.93854 3.23888 6.82915 3.12328C6.71975 3.00768 6.57138 2.94274 6.41667 2.94274H1.16667C0.857247 2.94274 0.560501 3.07263 0.341709 3.30382C0.122916 3.53501 0 3.84857 0 4.17553V14.0378C0 14.3648 0.122916 14.6783 0.341709 14.9095C0.560501 15.1407 0.857247 15.2706 1.16667 15.2706H10.5C10.8094 15.2706 11.1062 15.1407 11.325 14.9095C11.5437 14.6783 11.6667 14.3648 11.6667 14.0378V8.49027C11.6667 8.3268 11.6052 8.17001 11.4958 8.05442C11.3864 7.93882 11.238 7.87388 11.0833 7.87388Z" fill="#049260"/>
</svg>
