<svg width="6" height="22" viewBox="0 0 6 22" fill="none" xmlns="http://www.w3.org/2000/svg">
<path d="M3 7.85714C2.40666 7.85714 1.82664 8.04147 1.33329 8.38681C0.839943 8.73215 0.455425 9.223 0.228363 9.79728C0.00129984 10.3716 -0.0581101 11.0035 0.0576455 11.6131C0.173401 12.2228 0.459123 12.7828 0.878681 13.2223C1.29824 13.6619 1.83279 13.9612 2.41473 14.0825C2.99667 14.2037 3.59987 14.1415 4.14805 13.9036C4.69623 13.6657 5.16476 13.2629 5.49441 12.7461C5.82405 12.2292 6 11.6216 6 11C6 10.1665 5.68393 9.36706 5.12132 8.77766C4.55871 8.18826 3.79565 7.85714 3 7.85714ZM3 12.5714C2.70333 12.5714 2.41332 12.4793 2.16665 12.3066C1.91997 12.1339 1.72771 11.8885 1.61418 11.6014C1.50065 11.3142 1.47094 10.9983 1.52882 10.6934C1.5867 10.3886 1.72956 10.1086 1.93934 9.88883C2.14912 9.66906 2.41639 9.5194 2.70736 9.45877C2.99834 9.39813 3.29994 9.42925 3.57403 9.54819C3.84811 9.66713 4.08238 9.86854 4.2472 10.127C4.41203 10.3854 4.5 10.6892 4.5 11C4.5 11.4168 4.34196 11.8165 4.06066 12.1112C3.77936 12.4059 3.39782 12.5714 3 12.5714ZM3 6.28571C3.59334 6.28571 4.17336 6.10139 4.66671 5.75605C5.16006 5.41071 5.54457 4.91986 5.77164 4.34558C5.9987 3.7713 6.05811 3.13937 5.94235 2.52972C5.8266 1.92006 5.54088 1.36006 5.12132 0.920523C4.70176 0.480986 4.16721 0.181658 3.58527 0.0603905C3.00333 -0.0608773 2.40013 0.00136174 1.85195 0.239237C1.30377 0.477113 0.835237 0.87994 0.505593 1.39678C0.175949 1.91362 1.61668e-06 2.52126 1.61668e-06 3.14286C1.61668e-06 3.9764 0.316072 4.77579 0.878681 5.36519C1.44129 5.95459 2.20435 6.28571 3 6.28571ZM3 1.57143C3.29667 1.57143 3.58668 1.66359 3.83336 1.83626C4.08003 2.00893 4.27229 2.25436 4.38582 2.5415C4.49935 2.82864 4.52906 3.1446 4.47118 3.44943C4.4133 3.75426 4.27044 4.03426 4.06066 4.25403C3.85088 4.47379 3.58361 4.62346 3.29264 4.68409C3.00166 4.74473 2.70006 4.71361 2.42598 4.59467C2.15189 4.47573 1.91762 4.27432 1.7528 4.0159C1.58797 3.75748 1.5 3.45366 1.5 3.14286C1.5 2.72609 1.65804 2.32639 1.93934 2.03169C2.22064 1.73699 2.60218 1.57143 3 1.57143ZM3 15.7143C2.40666 15.7143 1.82664 15.8986 1.33329 16.244C0.839943 16.5893 0.455425 17.0801 0.228363 17.6544C0.00129984 18.2287 -0.0581101 18.8606 0.0576455 19.4703C0.173401 20.0799 0.459123 20.6399 0.878681 21.0795C1.29824 21.519 1.83279 21.8183 2.41473 21.9396C2.99667 22.0609 3.59987 21.9986 4.14805 21.7608C4.69623 21.5229 5.16476 21.1201 5.49441 20.6032C5.82405 20.0864 6 19.4787 6 18.8571C6 18.0236 5.68393 17.2242 5.12132 16.6348C4.55871 16.0454 3.79565 15.7143 3 15.7143ZM3 20.4286C2.70333 20.4286 2.41332 20.3364 2.16665 20.1637C1.91997 19.9911 1.72771 19.7456 1.61418 19.4585C1.50065 19.1714 1.47094 18.8554 1.52882 18.5506C1.5867 18.2457 1.72956 17.9657 1.93934 17.746C2.14912 17.5262 2.41639 17.3765 2.70736 17.3159C2.99834 17.2553 3.29994 17.2864 3.57403 17.4053C3.84811 17.5243 4.08238 17.7257 4.2472 17.9841C4.41203 18.2425 4.5 18.5463 4.5 18.8571C4.5 19.2739 4.34196 19.6736 4.06066 19.9683C3.77936 20.263 3.39782 20.4286 3 20.4286Z" fill="white"/>
</svg>
