<svg width="17" height="15" viewBox="0 0 17 15" fill="none" xmlns="http://www.w3.org/2000/svg">
<path d="M15.9459 2.57589L13.5146 0.175966C13.4582 0.120182 13.3911 0.0759282 13.3173 0.0457346C13.2436 0.015541 13.1645 0 13.0846 0C13.0047 0 12.9256 0.015541 12.8518 0.0457346C12.778 0.0759282 12.711 0.120182 12.6545 0.175966L5.36066 7.37574C5.30423 7.4315 5.25949 7.49769 5.22898 7.57052C5.19848 7.64336 5.18281 7.72141 5.18287 7.80023V10.2002C5.18287 10.3593 5.24691 10.5119 5.3609 10.6244C5.47489 10.7369 5.62949 10.8001 5.79069 10.8001H8.22199C8.30183 10.8002 8.38091 10.7847 8.4547 10.7546C8.52848 10.7245 8.59554 10.6803 8.65203 10.6246L15.9459 3.42486C16.0024 3.36914 16.0473 3.30297 16.0778 3.23013C16.1084 3.1573 16.1242 3.07922 16.1242 3.00038C16.1242 2.92153 16.1084 2.84346 16.0778 2.77062C16.0473 2.69778 16.0024 2.63161 15.9459 2.57589ZM7.9705 9.60017H6.39852V8.04847L11.2611 3.24862L12.8331 4.80032L7.9705 9.60017ZM13.6924 3.9521L12.1204 2.4004L13.0846 1.44868L14.6566 3.00038L13.6924 3.9521ZM15.5159 7.20025V13.8C15.5159 14.1183 15.3878 14.4235 15.1598 14.6485C14.9318 14.8736 14.6226 15 14.3002 15H2.14375C1.82134 15 1.51213 14.8736 1.28416 14.6485C1.05618 14.4235 0.928101 14.1183 0.928101 13.8V1.80042C0.928101 1.48217 1.05618 1.17695 1.28416 0.951914C1.51213 0.726877 1.82134 0.600453 2.14375 0.600453H8.82981C8.99102 0.600453 9.14562 0.663665 9.25961 0.776184C9.3736 0.888702 9.43764 1.04131 9.43764 1.20043C9.43764 1.35956 9.3736 1.51217 9.25961 1.62468C9.14562 1.7372 8.99102 1.80042 8.82981 1.80042H2.14375V13.8H14.3002V7.20025C14.3002 7.04112 14.3643 6.88851 14.4783 6.77599C14.5922 6.66348 14.7469 6.60026 14.9081 6.60026C15.0693 6.60026 15.2239 6.66348 15.3379 6.77599C15.4518 6.88851 15.5159 7.04112 15.5159 7.20025Z" fill="white"/>
</svg>
