<svg width="120" height="14" viewBox="0 0 120 14" fill="none" xmlns="http://www.w3.org/2000/svg">
<path d="M13.544 5.62C13.472 6.22 13.322 6.784 13.094 7.312C12.878 7.828 12.554 8.284 12.122 8.68C11.702 9.064 11.168 9.37 10.52 9.598C9.872 9.826 9.08 9.94 8.144 9.94H7.64C6.992 9.94 6.356 9.934 5.732 9.922C5.12 9.91 4.526 9.856 3.95 9.76L3.5 13H0.26L1.952 0.94C3.008 0.82 4.106 0.73 5.246 0.669999C6.386 0.609999 7.502 0.579999 8.594 0.579999H9.098C10.106 0.579999 10.922 0.693999 11.546 0.922C12.182 1.15 12.662 1.462 12.986 1.858C13.322 2.242 13.532 2.698 13.616 3.226C13.7 3.754 13.706 4.312 13.634 4.9L13.544 5.62ZM7.532 7.06C8.168 7.06 8.678 7.012 9.062 6.916C9.446 6.82 9.734 6.676 9.926 6.484C10.13 6.292 10.262 6.052 10.322 5.764C10.382 5.464 10.412 5.116 10.412 4.72C10.412 4.528 10.382 4.354 10.322 4.198C10.262 4.042 10.148 3.91 9.98 3.802C9.824 3.694 9.596 3.61 9.296 3.55C9.008 3.49 8.63 3.46 8.162 3.46C7.778 3.46 7.274 3.472 6.65 3.496C6.038 3.52 5.426 3.562 4.814 3.622L4.364 6.898C4.916 6.97 5.438 7.018 5.93 7.042C6.434 7.054 6.968 7.06 7.532 7.06ZM24.4656 8.68L25.5456 0.94H28.7856L27.0936 13H23.8536L18.6156 5.26L17.5356 13H14.2956L15.9876 0.94H19.2276L24.4656 8.68ZM29.2102 13L30.9022 0.94H34.1422L32.8462 10.12H41.1442L40.7482 13H29.2102ZM42.706 11.434C42.766 10.966 42.952 10.564 43.264 10.228C43.576 9.892 44.104 9.724 44.848 9.724H44.992C45.364 9.724 45.664 9.772 45.892 9.868C46.132 9.952 46.312 10.072 46.432 10.228C46.564 10.384 46.642 10.57 46.666 10.786C46.702 10.99 46.702 11.206 46.666 11.434L46.63 11.65C46.57 12.118 46.384 12.52 46.072 12.856C45.76 13.192 45.232 13.36 44.488 13.36H44.344C43.972 13.36 43.666 13.312 43.426 13.216C43.198 13.132 43.018 13.012 42.886 12.856C42.766 12.7 42.688 12.52 42.652 12.316C42.628 12.112 42.634 11.89 42.67 11.65L42.706 11.434Z" fill="white"/>
<path d="M62.3143 6.952L61.5043 12.784C60.6283 12.964 59.7283 13.102 58.8043 13.198C57.8923 13.306 56.9743 13.36 56.0503 13.36H55.4023C54.0223 13.36 52.9003 13.204 52.0363 12.892C51.1723 12.58 50.5063 12.16 50.0383 11.632C49.5703 11.092 49.2763 10.462 49.1563 9.742C49.0483 9.022 49.0543 8.254 49.1743 7.438L49.3183 6.502C49.4383 5.686 49.6543 4.918 49.9663 4.198C50.2903 3.478 50.7583 2.854 51.3703 2.326C51.9823 1.786 52.7623 1.36 53.7103 1.048C54.6583 0.735999 55.8223 0.579999 57.2023 0.579999H57.8503C58.7143 0.579999 59.5543 0.633999 60.3703 0.741999C61.1983 0.837999 61.9963 0.982 62.7643 1.174L62.3503 4.108C61.4983 3.868 60.6223 3.7 59.7223 3.604C58.8223 3.496 58.0363 3.442 57.3643 3.442C56.2843 3.442 55.4203 3.538 54.7723 3.73C54.1243 3.91 53.6263 4.192 53.2783 4.576C52.9303 4.96 52.7023 5.446 52.5943 6.034C52.4863 6.61 52.4323 7.294 52.4323 8.086C52.4323 8.434 52.4803 8.758 52.5763 9.058C52.6843 9.358 52.8823 9.616 53.1703 9.832C53.4583 10.048 53.8543 10.216 54.3583 10.336C54.8743 10.456 55.5403 10.516 56.3563 10.516C57.0163 10.516 57.7603 10.48 58.5883 10.408L59.0743 6.952H62.3143ZM72.8883 13L71.0163 9.22C70.3683 9.22 69.7443 9.214 69.1443 9.202C68.5563 9.19 67.9743 9.136 67.3983 9.04L66.8403 13H63.6003L65.2923 0.94C66.3483 0.82 67.4463 0.73 68.5863 0.669999C69.7263 0.609999 70.8423 0.579999 71.9343 0.579999H72.4383C73.4463 0.579999 74.2683 0.687999 74.9043 0.903999C75.5403 1.108 76.0263 1.39 76.3623 1.75C76.7103 2.11 76.9263 2.53 77.0103 3.01C77.1063 3.49 77.1123 4 77.0283 4.54L76.9203 5.26C76.8123 6.016 76.5663 6.706 76.1823 7.33C75.7983 7.942 75.1983 8.416 74.3823 8.752L76.1283 12.28L76.0203 13H72.8883ZM71.5563 3.46C71.1363 3.46 70.6143 3.472 69.9903 3.496C69.3783 3.52 68.7663 3.562 68.1543 3.622L67.7943 6.178C68.3463 6.25 68.8743 6.298 69.3783 6.322C69.8823 6.334 70.2903 6.34 70.6023 6.34C71.3223 6.34 71.8923 6.31 72.3123 6.25C72.7443 6.178 73.0683 6.064 73.2843 5.908C73.5003 5.752 73.6383 5.554 73.6983 5.314C73.7703 5.074 73.8063 4.774 73.8063 4.414C73.8063 4.294 73.7763 4.174 73.7163 4.054C73.6683 3.934 73.5603 3.832 73.3923 3.748C73.2363 3.664 73.0083 3.598 72.7083 3.55C72.4203 3.49 72.0363 3.46 71.5563 3.46ZM90.8391 3.82H82.5411L82.2891 5.62H88.7871L88.3731 8.5H81.8751L81.6411 10.12H89.9391L89.5431 13H78.0051L79.6971 0.94H91.2351L90.8391 3.82ZM104.119 3.82H95.8209L95.5689 5.62H102.067L101.653 8.5H95.1549L94.9209 10.12H103.219L102.823 13H91.2849L92.9769 0.94H104.515L104.119 3.82ZM114.735 8.68L115.815 0.94H119.055L117.363 13H114.123L108.885 5.26L107.805 13H104.565L106.257 0.94H109.497L114.735 8.68Z" fill="#049260"/>
</svg>
